PathFileType	4	(X/Y/Z)	/Users/itak/Documents/Research/Walk-IL/dataset/trc/00242_00009.trc
DataRate	CameraRate	NumFrames	NumMarkers	Units	OrigDataRate	OrigDataStartFrame	OrigNumFrames
100.000000	100.000000	4	53	mm	100.000000	624	832
Frame#	Time	RPSI			LPSI			L3			STRN			T10			C7			CLAV			RBAK			LBAK			LSHO			LUPA			LAEL			LAOL			LWTS			LWPS			LFRA			LIFD			LHPS			LHTS			RSHO			RUPA			RAEL			RAOL			RWTS			RWPS			RFRA			RIFD			RHTS			RHPS			RBHD			LFHD			RFHD			LBHD			LHIP			RHIP			RASI			LASI			LKNE			LTHI			LANK			LTIP			LTOE			LMT1			LMT5			LHEE			RKNE			RTHI			RANK			RTIP			RTOE			RMT1			RMT5			RHEE			
		X1	Y1	Z1	X2	Y2	Z2	X3	Y3	Z3	X4	Y4	Z4	X5	Y5	Z5	X6	Y6	Z6	X7	Y7	Z7	X8	Y8	Z8	X9	Y9	Z9	X10	Y10	Z10	X11	Y11	Z11	X12	Y12	Z12	X13	Y13	Z13	X14	Y14	Z14	X15	Y15	Z15	X16	Y16	Z16	X17	Y17	Z17	X18	Y18	Z18	X19	Y19	Z19	X20	Y20	Z20	X21	Y21	Z21	X22	Y22	Z22	X23	Y23	Z23	X24	Y24	Z24	X25	Y25	Z25	X26	Y26	Z26	X27	Y27	Z27	X28	Y28	Z28	X29	Y29	Z29	X30	Y30	Z30	X31	Y31	Z31	X32	Y32	Z32	X33	Y33	Z33	X34	Y34	Z34	X35	Y35	Z35	X36	Y36	Z36	X37	Y37	Z37	X38	Y38	Z38	X39	Y39	Z39	X40	Y40	Z40	X41	Y41	Z41	X42	Y42	Z42	X43	Y43	Z43	X44	Y44	Z44	X45	Y45	Z45	X46	Y46	Z46	X47	Y47	Z47	X48	Y48	Z48	X49	Y49	Z49	X50	Y50	Z50	X51	Y51	Z51	X52	Y52	Z52	X53	Y53	Z53	

625	6.24	713.0516967773438	1033.350708007812	196.3824310302734	824.3120727539062	1045.744262695312	239.7552795410156	784.0860595703125	1128.292724609375	221.1469116210938	708.5148315429688	1298.01708984375	465.0210876464844	782.1597900390625	1254.595458984375	223.4417266845703	771.802001953125	1512.508911132812	297.09326171875	718.4943237304688	1416.432250976562	446.7967224121094	722.7066040039062	1381.6982421875	191.9953765869141	881.8375244140625	1469.346313476562	309.2781677246094	907.0177612304688	1462.625610351562	410.9460144042969	991.8102416992188	1346.451171875	404.4056701660156	1023.541931152344	1138.544067382812	431.3225708007812	998.4390869140625	1116.391723632812	350.1758117675781	945.4547729492188	914.3013916015625	527.9537963867188	1027.631713867188	898.1306762695312	525.8710327148438	1031.680786132812	1034.345825195312	465.9760437011719	955.6536254882812	721.6563720703125	551.1378173828125	1020.705993652344	812.328125	551.524658203125	956.3869018554688	817.646728515625	575.604736328125	591.7106323242188	1474.175415039062	298.1560363769531	532.6185302734375	1413.612182617188	254.2052459716797	492.9326477050781	1136.777221679688	201.7020416259766	588.01953125	1127.21826171875	196.0813903808594	484.6990661621094	937.3134765625	362.3316650390625	440.6874084472656	915.4058837890625	291.8639221191406	469.7606811523438	1069.354614257812	225.830810546875	472.4632873535156	748.1218872070312	403.6294250488281	449.076171875	823.8717651367188	408.6316833496094	420.5764770507812	815.439208984375	341.6704711914062	717.0155029296875	1676.482666015625	350.1231994628906	703.4957885742188	1670.515625	576.5209350585938	614.896240234375	1670.732299804688	528.412841796875	812.0512084960938	1671.917114257812	453.1830444335938	922.5999755859375	989.6557006835938	384.6309509277344	579.0302124023438	992.05517578125	251.0992126464844	580.8310546875	1038.729248046875	354.6223754882812	841.685791015625	1027.39208984375	461.55322265625	857.7623291015625	510.0466613769531	458.3748474121094	890.6212768554688	651.8107299804688	444.391845703125	863.9754028320312	24.22172546386719	408.4558410644531	871.6747436523438	279.998291015625	431.7520446777344	717.4415893554688	41.04405975341797	574.72265625	710.1015625	39.68006896972656	495.8438720703125	821.63623046875	26.84988594055176	529.8311157226562	843.4745483398438	34.70175170898438	330.1871643066406	560.9413452148438	506.5625915527344	362.1139526367188	544.8087768554688	773.8826293945312	324.6405944824219	716.7476196289062	152.4996032714844	63.94899368286133	590.7611083984375	398.9719543457031	328.7718811035156	664.7680053710938	45.56945037841797	234.6600646972656	727.721435546875	64.85421752929688	211.6436920166016	647.7034301757812	91.16921234130859	127.1609802246094	792.852294921875	184.6114349365234	49.21795272827148	
626	6.25	714.2239379882812	1033.950317382812	200.7862548828125	824.9682006835938	1046.1005859375	245.4304656982422	785.130859375	1128.933227539062	226.5825805664062	706.7662963867188	1298.265869140625	469.7881774902344	783.4810180664062	1255.30322265625	229.0558013916016	772.0335693359375	1513.024536132812	303.0989685058594	716.8455810546875	1416.749877929688	451.9210815429688	724.4071044921875	1382.458129882812	197.1321411132812	882.0220336914062	1470.001220703125	316.6909484863281	905.6901245117188	1463.250244140625	418.6793212890625	990.5582885742188	1347.152465820312	413.8151245117188	1021.481323242188	1139.305297851562	442.745361328125	997.8011474609375	1116.593505859375	361.3470458984375	940.9973754882812	916.0210571289062	539.2696533203125	1023.138000488281	899.7186279296875	539.3829956054688	1028.683227539062	1035.385620117188	478.4188842773438	950.5713500976562	723.569091796875	564.443603515625	1015.621215820312	814.1262817382812	565.529541015625	950.86083984375	819.6856689453125	588.3595581054688	592.0205688476562	1474.652954101562	301.7442932128906	533.5436401367188	1414.110107421875	256.9364624023438	494.961181640625	1137.289306640625	203.4893951416016	590.0909423828125	1127.763427734375	199.3560943603516	484.1832885742188	938.6705322265625	364.9897766113281	441.4483032226562	916.3057250976562	294.0085144042969	471.21875	1069.826904296875	227.8081665039062	471.2475891113281	749.8482666015625	407.5637817382812	447.7387390136719	825.650634765625	411.5444641113281	420.4968566894531	816.7117309570312	344.1755676269531	716.2877197265625	1677.005615234375	355.8286437988281	700.150146484375	1670.318481445312	581.9949340820312	612.2059326171875	1670.621948242188	532.9705200195312	810.18408203125	1672.17724609375	459.925537109375	921.7860107421875	989.7862548828125	391.044677734375	579.7687377929688	993.0889892578125	254.1329803466797	580.5398559570312	1039.6376953125	357.6985473632812	840.4274291992188	1027.667114257812	467.6011047363281	857.470458984375	509.5642700195312	460.7787475585938	890.0010986328125	651.6348266601562	448.2659912109375	863.84375	24.26439476013184	408.4731140136719	871.5963745117188	279.8224487304688	432.8265991210938	717.3214721679688	40.72426605224609	574.7545776367188	709.9148559570312	39.49636840820312	495.8385009765625	821.6263427734375	26.84908103942871	529.8382568359375	843.4404296875	34.85268783569336	330.0982666015625	557.90966796875	508.2439575195312	368.91162109375	543.5411376953125	775.5193481445312	328.5925903320312	716.6102294921875	146.2273101806641	80.94873046875	587.5708618164062	399.8436584472656	337.6156921386719	660.110595703125	46.37753677368164	254.1619873046875	723.8729858398438	63.76472473144531	231.734130859375	645.7411499023438	88.05966186523438	145.0112457275391	793.2913208007812	177.0245666503906	66.38343048095703	
627	6.26	715.2968139648438	1034.51171875	205.2026977539062	825.53662109375	1046.391845703125	251.0765686035156	786.0870361328125	1129.472290039062	232.0194854736328	704.985107421875	1298.454467773438	474.5222473144531	784.7010498046875	1255.885986328125	234.6094512939453	772.1959838867188	1513.465454101562	309.0223388671875	715.1574096679688	1416.994262695312	456.9768676757812	726.0267944335938	1383.098388671875	202.2490081787109	882.1029663085938	1470.561645507812	324.0266723632812	904.2823486328125	1463.804931640625	426.3077087402344	989.2149047851562	1347.800048828125	423.107666015625	1019.347290039062	1140.026611328125	453.9791870117188	997.0814819335938	1116.762084960938	372.3706970214844	936.3270874023438	917.73583984375	550.34375	1018.4189453125	901.3173828125	552.7322998046875	1025.5537109375	1036.401611328125	490.6848754882812	945.1156005859375	725.5669555664062	577.7139282226562	1010.248352050781	815.9649658203125	579.4163208007812	945.1073608398438	821.8299560546875	601.0158081054688	592.281494140625	1475.021362304688	305.2943115234375	534.4474487304688	1414.495849609375	259.6500549316406	496.9064331054688	1137.728515625	205.2769775390625	592.0232543945312	1128.168823242188	202.6070404052734	483.7396545410156	939.8257446289062	367.4973754882812	442.2045593261719	917.0504760742188	296.0628967285156	472.6538391113281	1070.206909179688	229.7887420654297	470.1966247558594	751.3585205078125	411.23486328125	446.5695190429688	827.176025390625	414.2579040527344	420.4927673339844	817.7831420898438	346.5357971191406	715.474853515625	1677.4453125	361.4208374023438	696.7286987304688	1670.087280273438	587.3296508789062	609.444091796875	1670.428466796875	537.4006958007812	808.2238159179688	1672.397094726562	466.5360107421875	920.8711547851562	989.866943359375	397.4407043457031	580.366943359375	994.020263671875	257.1642150878906	580.1925659179688	1040.4248046875	360.752197265625	839.0248413085938	1027.862426757812	473.5883178710938	857.1738891601562	509.0735473632812	463.1747741699219	889.3506469726562	651.4435424804688	452.1470642089844	863.7109375	24.30068016052246	408.4813842773438	871.4939575195312	279.6651611328125	433.8889465332031	717.2125244140625	40.44087982177734	574.7971801757812	709.7269897460938	39.32434844970703	495.8315734863281	821.6184692382812	26.84464073181152	529.8482666015625	843.4024047851562	35.04472351074219	330.0175476074219	554.9718627929688	509.8016967773438	375.6580810546875	542.2745361328125	777.021240234375	332.4430236816406	715.6129760742188	139.2287139892578	98.42445373535156	584.3594970703125	400.4588928222656	346.4768981933594	655.5813598632812	47.13527297973633	274.3345031738281	719.9640502929688	62.6673698425293	252.3011627197266	643.35986328125	84.31442260742188	163.6224670410156	792.7367553710938	168.8360748291016	83.72041320800781	
628	6.27	716.2804565429688	1035.025268554688	209.6140289306641	826.022216796875	1046.615966796875	256.6979675292969	786.9639892578125	1129.917114257812	237.4450378417969	703.1541137695312	1298.577758789062	479.231689453125	785.8133544921875	1256.347900390625	240.1107635498047	772.2875366210938	1513.82568359375	314.8720092773438	713.419189453125	1417.157836914062	461.9649963378906	727.5714721679688	1383.62109375	207.3407440185547	882.0783081054688	1471.020874023438	331.2934265136719	902.7884521484375	1464.27099609375	433.8416442871094	987.7720336914062	1348.373779296875	432.2886962890625	1017.147155761719	1140.691284179688	465.0262451171875	996.2993774414062	1116.88134765625	383.2451782226562	931.4507446289062	919.423583984375	561.2294921875	1013.489074707031	902.9055786132812	565.9011840820312	1022.303405761719	1037.374877929688	502.766357421875	939.2501220703125	727.6383666992188	590.9501953125	1004.595703125	817.831298828125	593.1768798828125	939.115966796875	824.0750732421875	613.5592651367188	592.4877319335938	1475.282348632812	308.8019714355469	535.3252563476562	1414.767211914062	262.3409423828125	498.7535095214844	1138.079467773438	207.0856170654297	593.8216552734375	1128.44580078125	205.8291931152344	483.3634948730469	940.7758178710938	369.8590393066406	442.9490966796875	917.63134765625	298.02685546875	474.0817260742188	1070.499633789062	231.7289733886719	469.3040161132812	752.6366577148438	414.627685546875	445.5754089355469	828.4359130859375	416.7908630371094	420.5581665039062	818.639404296875	348.7551574707031	714.5794677734375	1677.793212890625	366.8997497558594	693.2516479492188	1669.830444335938	592.5280151367188	606.6139526367188	1670.163940429688	541.698486328125	806.1758422851562	1672.572387695312	473.0108337402344	919.859619140625	989.89404296875	403.8180847167969	580.851318359375	994.8336181640625	260.1666564941406	579.789794921875	1041.07275390625	363.7795104980469	837.4580688476562	1027.963989257812	479.4843444824219	856.8567504882812	508.5738830566406	465.5634460449219	888.66015625	651.233642578125	456.0368041992188	863.5718994140625	24.33271980285645	408.4798889160156	871.3555297851562	279.509521484375	434.9427795410156	717.1064453125	40.18680572509766	574.8525390625	709.5392456054688	39.16191101074219	495.8214416503906	821.6133422851562	26.83784484863281	529.8603515625	843.3551025390625	35.28200531005859	329.9624328613281	552.1220092773438	511.2482604980469	382.3341064453125	540.99560546875	778.3827514648438	336.1677856445312	713.7857055664062	131.7222595214844	116.2978439331055	581.1246337890625	400.8627624511719	355.3341064453125	650.8861083984375	47.86809158325195	294.943115234375	715.7494506835938	61.56998825073242	273.1937255859375	640.4273071289062	80.16439056396484	182.7909088134766	791.2871704101562	160.1721649169922	101.2651824951172	
